<svg xmlns="http://www.w3.org/2000/svg" width="121.28" height="33.426"><path d="M37.212 25.367a.952.952 0 0 1 .677 0c.186.083.034.151-.339.151-.372 0-.524-.068-.338-.15zm16.792-.013c.337-.072.824-.069 1.083.006.259.075-.017.133-.613.13-.595-.003-.807-.065-.47-.136zm18.004.005a2.02 2.02 0 0 1 .948 0c.26.075.047.137-.474.137s-.735-.062-.474-.137zm-49.511-5.173c0-2.713.04-3.822.09-2.466a80.76 80.76 0 0 1 0 4.931c-.05 1.356-.09.247-.09-2.465zm63.364-.3c0-2.712.04-3.821.09-2.465a80.76 80.76 0 0 1 0 4.931c-.05 1.357-.09.247-.09-2.465zm-31.725 2.186a2.02 2.02 0 0 1 .948 0c.26.075.047.136-.474.136s-.735-.061-.474-.136zm2.911-.804c0-.062.213-.297.474-.523.43-.372.439-.361.102.113-.354.498-.576.656-.576.41zM29.448 17.92c.013-.348.077-.419.164-.18.078.215.068.473-.022.572-.09.1-.154-.077-.142-.392zm33.078-1.021c0-.575.055-.81.123-.523.068.287.068.758 0 1.046-.068.288-.123.052-.123-.523zm6.651.538c.105-.115 2.104-.25 4.443-.299 2.339-.05 4.166.004 4.062.12-.105.114-2.104.249-4.443.298-2.338.05-4.166-.004-4.062-.119zm-39.729-1.31c.013-.348.077-.42.164-.18.078.215.068.473-.022.572-.09.1-.154-.077-.142-.392zm4.853-2.927c0-.063.213-.298.474-.524.43-.371.439-.36.102.113-.354.498-.576.656-.576.41zm51.179-1.962c0-.722.15-.795.365-.177.084.242.036.518-.106.616-.143.097-.26-.1-.26-.44zm-63.343-.491c.013-.348.077-.419.163-.18.079.215.07.473-.02.572-.09.1-.155-.077-.143-.392zm64.561-.722c.27-.33.551-.598.626-.598.074 0-.086.269-.355.598-.27.328-.551.597-.626.597-.074 0 .086-.269.355-.597zm-86.296.094c.195-.086.429-.075.519.024.09.1-.07.17-.356.157-.315-.014-.38-.085-.163-.18zm22.797.092c0-.062.213-.298.474-.523.429-.372.439-.361.102.113-.354.497-.576.656-.576.41zm2.928-1.885c.195-.086.429-.076.519.024.09.1-.07.17-.356.157-.315-.015-.38-.085-.163-.18zm10.814.006a.952.952 0 0 1 .677 0c.186.083.034.151-.338.151-.373 0-.525-.068-.339-.15zm35.202 0a.952.952 0 0 1 .677 0c.186.083.034.151-.338.151-.373 0-.525-.068-.339-.15zm17.348-.006c.195-.086.429-.076.519.024.09.1-.07.17-.356.157-.315-.015-.38-.085-.163-.18zM8.619 1.057c0-.41.061-.579.137-.373.075.205.075.542 0 .747-.076.205-.137.037-.137-.374zM1.756.255C1.95.17 2.185.18 2.275.28c.09.1-.07.17-.356.157-.315-.014-.38-.085-.163-.18z" fill="#d0cfcf"/><path d="M4.892 20.634c0-2.302.043-3.203.095-2.005a56.402 56.402 0 0 1-.001 4.185c-.052 1.102-.094.121-.094-2.18zM94.8 18.99c0-3.205.04-4.517.088-2.914.049 1.603.049 4.225 0 5.828-.049 1.603-.088.291-.088-2.914zm3.787 1.046c0-2.63.042-3.666.092-2.302.05 1.364.05 3.516 0 4.782-.051 1.266-.092.15-.092-2.48zm-69.139-3.014c.013-.348.077-.419.164-.18.078.216.068.473-.022.573-.09.099-.154-.078-.142-.393zm49.283-2.092c.013-.348.077-.419.164-.18.078.215.068.473-.022.573-.09.099-.154-.078-.142-.393zm-9.592-.348c-.07-.124 1.374-.225 3.207-.225 1.834 0 3.277.101 3.208.225-.069.123-1.512.224-3.208.224-1.695 0-3.138-.101-3.207-.224zM6.613 13.113a.952.952 0 0 1 .677 0c.186.083.034.151-.339.151-.372 0-.524-.068-.338-.15zm-1.754-1.296c0-.74.053-1.042.117-.673.065.37.065.976 0 1.345-.064.37-.117.068-.117-.672zm-1.06-5.38c0-1.561.046-2.2.102-1.42a24.1 24.1 0 0 1 0 2.84c-.056.78-.101.142-.101-1.42zM3.11.255c.196-.086.43-.075.52.024.09.1-.07.17-.356.157-.315-.014-.38-.085-.163-.18z" fill="#cbb6b5"/><path d="M107.07 30.45c.183-.082.549-.087.812-.01.263.075.113.142-.333.148-.447.006-.663-.056-.48-.138zM2.01 24.751a7.813 7.813 0 0 1 1.76 0c.484.067.088.12-.88.12s-1.364-.053-.88-.12zm17.872 0a7.813 7.813 0 0 1 1.76 0c.484.067.088.12-.88.12s-1.365-.053-.88-.12zm63.364 0a7.813 7.813 0 0 1 1.76 0c.484.067.088.12-.88.12s-1.364-.053-.88-.12zm12.456 0a7.813 7.813 0 0 1 1.76 0c.484.067.088.12-.88.12s-1.364-.053-.88-.12zm-76.992-6.06c0-3.37.039-4.748.087-3.063.049 1.685.049 4.442 0 6.127-.048 1.685-.087.306-.087-3.064zm63.362.448c0-3.123.04-4.441.089-2.93.049 1.513.05 4.068 0 5.68-.048 1.61-.089.374-.089-2.75zm-16.849-2.39c.006-.494.067-.66.135-.368.069.29.064.694-.01.896-.074.202-.13-.035-.125-.529zm-31.952-.3c.006-.493.066-.658.134-.367.07.29.065.694-.01.896-.074.203-.13-.035-.124-.528zm7.821-.024c.013-.349.077-.42.164-.18.078.215.068.473-.022.572-.09.1-.154-.077-.142-.392zm-32.837-.03c.195-.087.429-.076.519.023.09.1-.07.17-.356.157-.315-.014-.38-.085-.163-.18zm-3.001-3.28c.183-.082.549-.087.812-.01.264.075.114.142-.333.148-.447.006-.662-.056-.48-.138zm89.454-.277c.013-.348.077-.419.163-.18.078.215.069.473-.021.572-.09.1-.154-.077-.142-.392zm-68.852-.627c.195-.087.429-.076.519.023.09.1-.07.17-.356.157-.315-.014-.38-.085-.163-.18zm63.364 0c.195-.087.429-.076.519.023.09.1-.07.17-.356.157-.315-.014-.38-.085-.163-.18zm12.727 0c.195-.087.429-.076.519.023.09.1-.07.17-.356.157-.315-.014-.38-.085-.163-.18zm-3.74-.71c0-.175.121-.234.27-.132.15.101.271.244.271.316 0 .073-.122.132-.27.132-.15 0-.271-.142-.271-.317zm-37.91-.73c-.186-.247-.277-.448-.202-.448.074 0 .287.201.472.448.186.246.276.448.202.448-.075 0-.287-.202-.473-.448z" fill="#a1a0a0"/><path d="M-.089 5.325V.55L2.925.374C4.583.277 6.533.276 7.258.37c1.215.158 1.318.236 1.318.982 0 .446-.123 1.202-.274 1.68l-.274.868-2.163-.109-2.163-.108v2.729c0 2.699-.008 2.732-.745 3.054-.41.18-1.262.395-1.895.48l-1.151.154z" fill="#d62d28"/><path d="M107.349 33.424c.337-.072.824-.07 1.083.006.259.074-.017.133-.613.13-.595-.004-.807-.065-.47-.136zm4.397-1.732c.35-.41.697-.747.771-.747.075 0-.15.336-.5.747s-.697.747-.772.747c-.074 0 .151-.336.5-.747zM77.898 23.36c0-.062.213-.297.473-.523.43-.371.44-.36.103.113-.354.498-.576.656-.576.41zM48.446 11.73L48.382.133l1.828.089 1.827.088.136 4.83c.074 2.655.044 4.765-.068 4.689-.112-.077-.203-2.216-.203-4.754V.46h-3.243l-.074 11.432-.074 11.432zm3.564 5.617c0-2.466.043-3.434.094-2.153.05 1.281.05 3.299-.001 4.483-.051 1.184-.093.136-.093-2.33zm6.714-.299c.006-.493.067-.658.135-.368.069.291.064.695-.01.897-.074.202-.13-.036-.125-.529zm-13.82-.15c0-.41.062-.578.137-.373.075.206.075.542 0 .747-.075.206-.137.038-.137-.373zm-38.693-.512c.411-.07 1.02-.067 1.353.004.334.07-.004.127-.748.125-.745-.003-1.017-.06-.605-.13zm56.002-1.156c.013-.348.077-.419.164-.18.078.215.068.473-.022.572-.09.1-.153-.077-.142-.392zm24.35-1.433c0-.062.213-.297.474-.523.43-.372.439-.361.102.113-.354.498-.576.656-.576.41zm-4.56-.784c0-.41.06-.579.136-.373.075.205.075.542 0 .747-.075.206-.137.037-.137-.374zm-63.386-.772c.013-.348.077-.419.163-.18.078.216.069.473-.021.573-.09.099-.154-.078-.142-.393zm85.158.087c.102-.295.253-.46.337-.369.083.093 0 .334-.185.536-.268.293-.299.26-.152-.167zm-49.504-.41a.952.952 0 0 1 .677 0c.187.084.034.152-.338.152s-.525-.068-.339-.151zm-22.678-.81c0-.063.213-.298.474-.524.43-.371.439-.36.102.113-.354.498-.576.656-.576.41zm-16.204-1.98c0-.41.061-.579.136-.374.075.206.075.542 0 .748-.075.205-.136.037-.136-.374zm105.293.299c-.244-.174-.278-.292-.084-.294a.617.617 0 0 1 .49.294c.208.371.114.371-.406 0zm-65.04-.802c.196-.086.43-.076.52.024.09.099-.07.17-.356.157-.316-.015-.38-.086-.164-.181zM9.66 2.104c0-.247.118-.449.263-.449.144 0 .192.202.106.448-.086.247-.204.449-.262.449-.059 0-.107-.202-.107-.449z" fill="#5d5b5c"/><path d="M106.697 33.121c-2.105-3.17 4.078-1.88 4.342-5.447 1.262-2.445 1.15-4.409.035-6.826-1.35-2.817-2.11-5.531-3.243-8.359-2.526-2.91 1.799-5.007 2.877-1.569.574 1.727 1.114 3.49 1.815 5.649.61 1.776 1.406 4.477 2.233 1.225.836-2.066 1.402-4.543 2.38-6.56-.621-3.658 5.795-1.972 2.577.958-.335 1.542-1.35 3.508-1.702 5.005-1.118 2.497-2.048 4.984-2.904 7.36-1.078 2.277-1.459 4.7-3.045 6.602-1.439 1.873-2.888 2.343-5.365 1.962zM35.96 24.885c-3.472-.492-6-3.754-6.113-7.199-.301-3.835 2.1-8.02 6.079-8.744 3.06-.54 5.978.429 7.468 3.123 1.825 2.59 1.866 7.128-.11 9.79-1.171 2.63-4.682 3.385-7.324 3.03zm2.673-2.66c1.897-.664 3.496-3.612 2.902-6.04-.541-2.034-2.004-5.105-4.964-4.562-3.043.56-4.367 4.785-3.098 7.367.988 2.18 1.7 3.734 5.16 3.235zm13.864 2.688c-4.306-.703-4.173-2.07-3.908-6.253-.03-5.967.048-11.934.076-17.901 1.142.259 3.61-.808 2.966 1.235.172 2.605-.443 5.463.469 7.865 1.813-.83 4.043-1.256 6.38-.227 1.66.589 3.002 2.91 3.564 4.409.21 2.47.402 5.284-.819 7.157-1.006 1.767-2.574 3.003-4.023 3.607-1.538-.095-3.13.632-4.705.108zm4.024-2.952c3.247-1.89 3.39-7.93-.227-9.645-4.847-2.481-5.167 3.837-4.647 7.11-.63 3.075 2.782 3.517 4.874 2.535zm14.384 2.94c-3.154-.708-5.317-3.722-5.108-6.654-.518-3.529.723-6.76 3.245-8.632 2.048-1.031 5.453-1.267 7.483.457 2.075 1.672 3.276 7.188-.657 6.9-3.06-.342-10.031-.566-5.592 3.738 1.656 2.53 5.15 1.361 6.854.478 2.998 2.246-2.569 4.068-4.519 3.924-.572-.012-1.165.027-1.706-.21zm5.046-10.6c-.528-3.637-5.386-4.455-6.858-.982-1.591 2.97 5.966 1.812 6.858.982zM1.265 18.093c-.63-2.626.195-9.129 3.25-6.184.555 3.442 6.978 1.407 7.074-1.607 1.466-3.012-4.228-6.523-.611-8.114 2.504 1.088 4.359 3.307 4.057 6.116.279 3.675-1.219 6.933-4.952 7.52-2.833.166-6.871-.56-5.564 3.719-.205 1.495.358 3.743-.252 4.827-1.342-.153-3.698.708-3.002-1.483v-4.794zm17.872.167c-.09-2.971.237-6.294-1.007-8.726 2.152-.801 4.121-.375 4.091 2.582 1.309-2.164 3.536-4.52 6.22-2.393-.513 3.874-3.486 1.203-5.35 3.915-1.289 1.974-.928 4.82-.975 7.335-.303 1.241.883 3.972-1.236 3.397-2.039.633-1.873-.937-1.743-2.472V18.26zm63.364.3c.598-3.015-1.217-7.493-.152-9.27 2.665-1.537 2.724 2.142 3.557 2.654.18-2.516 5.951-4.608 5.636-1.675-.132 2.815-2.888 1.063-4.459 2.657-2.47 2.576-1.38 6.475-1.603 9.777.682 2.147-1.273 1.655-2.726 1.667-.618-.867-.065-2.905-.253-4.202V18.56zm12.682-.926c.744-2.538-1.315-7.287-.226-8.167 2.277-1.607 3.228.397 3.36 2.605 1.554-1.624 1.528-3.094 4.783-3.265 3.034.708.248 4.204-1.724 3.486-2.498.844-3.717 4.215-3.168 6.916-.003 1.72 0 3.44-.001 5.16-1.536-.018-3.635.534-2.957-1.73l-.067-5.005z" fill="#221e1f"/></svg>