<svg xmlns="http://www.w3.org/2000/svg" width="448" height="115.352"><path d="M391.321 114.776c-.87-.613-.914-2.11-.169-5.715l1.01-4.883h4.55c3.884 0 5.024-.517 7.77-3.52 1.77-1.936 4.464-6.544 5.987-10.24 3.272-7.941 4.04-4.73-8.899-37.2-4.726-11.86-8.475-21.664-8.331-21.787.945-.809 13.327-2.378 13.917-1.764.402.419 3.643 8.652 7.202 18.296 5.76 15.61 6.58 17.252 7.463 14.956.545-1.418 3.536-9.309 6.646-17.535s5.982-15.298 6.381-15.717C435.76 28.712 448 30.87 448 31.985c0 2.059-29.016 70.555-31.345 73.993-4.398 6.494-8.914 8.96-17.065 9.318-3.9.171-7.62-.062-8.269-.52zM131.723 86.632c-10.492-1.884-18.466-9.456-21.29-20.214-5.222-19.9 8.16-37.864 28.216-37.877 16.02-.01 27.062 10.894 28.131 27.78.405 6.392.11 8.138-2.307 13.694-5.601 12.876-18.146 19.24-32.75 16.617zm14.763-13.571c7.083-5.747 7.457-20.41.713-27.91-5.51-6.13-13.985-6.25-19.073-.273-3.761 4.419-4.774 9.635-3.302 16.999.9 4.496 1.97 6.492 5.118 9.552 3.484 3.385 4.592 3.868 8.884 3.868 3.517 0 5.684-.633 7.66-2.236zm47.456 13.626c-2.507-.467-6.895-1.885-9.75-3.152L179 81.231V0h14v33.06l3.054-1.63c1.68-.895 5.269-1.899 7.976-2.23 24.022-2.934 37.086 30.532 19.278 49.385-6.448 6.827-18.437 10.134-29.366 8.102zm17.463-14.537c6.238-5.65 6.973-17.932 1.503-25.104-4.216-5.53-10.041-7.05-16.44-4.293L193 44.248v14.441c0 16.683-.088 16.525 9.215 16.576 4.968.028 6.17-.38 9.19-3.115zm48.026 13.698c-11.036-4.04-16.54-11.584-17.97-24.63-1.966-17.918 10.555-32.861 27.402-32.702 12.185.115 20.457 7.1 22.643 19.12.55 3.016.17 4.487-2.049 7.945l-2.723 4.244h-15.367c-14.291 0-15.367.133-15.367 1.91 0 2.812 4.047 8.519 8.024 11.315 2.922 2.054 4.318 2.357 8.755 1.9 2.904-.298 7.263-1.685 9.687-3.083l4.408-2.541 2.496 3.89 2.496 3.89-2.683 2.65c-6.612 6.53-20.683 9.412-29.752 6.092zM279 47.86c0-.908-1.53-3.229-3.4-5.158-3.86-3.98-8.556-4.65-13.633-1.942-2.455 1.31-5.967 6.126-5.967 8.183 0 .312 5.175.567 11.5.567 9.875 0 11.5-.233 11.5-1.65zM4 62.1V38.59l5.25-1.204c2.888-.662 6.263-1.508 7.5-1.88 2.103-.633 2.25-.366 2.25 4.085v4.762h6.032c13.038 0 19.73-6.957 16.946-17.62-.913-3.498-4.213-7.388-7.113-8.385-.697-.24-.615-2.455.25-6.773 1.478-7.382 1.938-7.573 9.502-3.94 14.436 6.933 17.958 28.356 6.639 40.378-5.556 5.9-11.137 8.014-22.506 8.522L19 56.97v28.641H4zm65 .786c0-17.867-.32-23.517-1.5-26.428-.825-2.037-1.5-3.835-1.5-3.996 0-.64 9.495-3.581 11.564-3.581 2.281 0 5.436 5.117 5.436 8.818 0 1.212.74.654 2.258-1.703 3.085-4.79 10.088-8.358 14.712-7.5 6.858 1.274 7.045 1.585 5.21 8.647l-1.62 6.237-4.03-.62c-5.095-.785-8.475.542-12.41 4.875l-3.11 3.422-.005 17.277L84 85.611H69zm234 .045c0-17.995-.317-23.554-1.513-26.506-.832-2.054-1.267-3.989-.966-4.3.3-.31 2.981-1.34 5.957-2.29 5.304-1.693 5.447-1.684 7.334.465 1.06 1.205 2.236 3.54 2.615 5.19l.69 2.998 2.917-3.65c4.88-6.107 12.828-8.104 19.11-4.803 1.507.792 1.517 1.383.122 7.093l-1.521 6.23-4.81-.659c-3.87-.529-5.456-.242-8.122 1.471-5.837 3.75-6.265 5.254-6.813 23.906l-.5 17.02-7.25.303-7.25.303zm46.994-.785c-.005-18.8-.303-24.054-1.5-26.42-.822-1.626-1.494-3.097-1.494-3.27 0-.173 2.24-1.082 4.977-2.02 7.418-2.541 9.238-1.925 11.062 3.743l1.54 4.782 2.138-3.365c2.88-4.53 9.86-7.977 14.366-7.094 6.694 1.312 6.891 1.632 5.224 8.462l-1.482 6.064-5.98-.111c-5.791-.108-6.104.026-9.912 4.232L365 51.493v34.118h-15l-.006-23.465zM0 18.28V1.311L4.64.657c6.738-.953 25.63-.774 27.208.257 1.098.718 1.133 1.949.188 6.645l-1.16 5.764-7.938-.452L15 12.417v18.632l-3.25 1.38c-1.788.758-5.162 1.703-7.5 2.1L0 35.251z" fill="#ff0"/><path d="M.74 17.78V1.32l9.235-.6c5.079-.329 12.1-.33 15.604-.003 7.027.656 7.036.67 5.722 8.622l-.626 3.787-7.92-.66-7.92-.66v19.339l-5.217 1.549C.154 35.504.74 36.49.74 17.78z" fill="red"/></svg>