<svg xmlns="http://www.w3.org/2000/svg" width="448" height="112"><path d="M392.832 109.893c-.3-.485-.094-3.006.46-5.6l1.006-4.717h4.55c3.884 0 5.024-.5 7.77-3.412 1.77-1.877 4.482-6.387 6.027-10.022l2.81-6.61-4.11-10.228c-2.259-5.625-6.85-16.92-10.203-25.1-3.353-8.18-5.952-15.016-5.776-15.192.82-.819 13.294-2.31 13.933-1.666.398.402 3.635 8.38 7.194 17.73 5.744 15.091 6.581 16.72 7.451 14.5.54-1.375 2.802-7.225 5.028-13 6.153-15.963 7.524-19.473 7.736-19.8.106-.164 3.21.226 6.896.868 5.398.94 6.619 1.485 6.27 2.8-1.292 4.853-28.408 66.792-30.814 70.386-4.596 6.862-8.95 9.186-17.98 9.597-4.236.192-7.948-.048-8.248-.534zM133.858 82.584c-16.696-2.971-26.56-20.083-21.088-36.58 1.6-4.82 5.249-10.623 8.325-13.237 6.807-5.785 19.5-8.085 29.249-5.3 10.667 3.048 18.79 14.768 18.79 27.11 0 7.488-3.698 16.577-8.623 21.196-6.137 5.755-16.996 8.53-26.653 6.811zm14.764-13.176c7.083-5.57 7.457-19.786.713-27.059-5.174-5.579-13.66-6.043-18.46-1.01-6.783 7.109-6.22 18.992 1.253 26.465 3.354 3.354 4.325 3.772 8.755 3.772 3.597 0 5.75-.603 7.739-2.168zm48.514 13.534c-3.83-.73-9.151-2.441-12.75-4.098l-3.25-1.496V-1.424h14v15.5c0 8.525.337 15.493.75 15.485.412-.008 2.55-.663 4.75-1.456 12.1-4.36 25.144 1.479 30.573 13.684 3.25 7.308 3.252 17.264.004 24.567-2.814 6.326-10.214 13.346-15.848 15.033-4.635 1.39-14.628 2.24-18.23 1.553zm16.404-14.416c5.781-5.076 6.831-16.363 2.182-23.458-3.625-5.533-10.752-7.703-16.884-5.14l-3.702 1.546v14.002c0 16.173-.088 16.02 9.215 16.07 4.968.026 6.17-.369 9.19-3.02zm48.92 13.669c-10.009-3.269-16.27-10.223-18.387-20.422-4.01-19.312 8.519-35.752 27.085-35.543 10.312.116 16.764 4.238 20.894 13.346 2.712 5.982 2.6 8.648-.552 13.197l-2.636 3.803H273.5c-14.289 0-15.364.13-15.364 1.852 0 2.727 4.046 8.26 8.023 10.97 2.922 1.991 4.319 2.285 8.756 1.843 2.903-.29 7.262-1.635 9.687-2.99l4.408-2.464 2.68 4.052 2.681 4.05-2.367 1.915c-7.565 6.115-21.294 9.085-29.544 6.39zm18.676-37.219c0-.88-1.53-3.13-3.4-5-3.86-3.86-8.556-4.508-13.633-1.883-2.455 1.27-5.967 5.94-5.967 7.934 0 .302 5.175.55 11.5.55 9.875 0 11.5-.227 11.5-1.6zm-275 13.738V35.852l5.25-1.11c2.887-.61 6.262-1.4 7.5-1.754 2.101-.602 2.25-.34 2.25 3.972v4.616h6.184c10.112 0 16.616-4.2 17.03-11 .417-6.846-1.503-10.824-6.602-13.677-1.618-.905-1.668-1.55-.565-7.159 1.287-6.54 1.497-6.697 6.953-5.179 8.29 2.307 14.831 11.02 15.722 20.943 1 11.148-3.838 20.025-13.49 24.747-4.73 2.314-7.282 2.837-15.449 3.165l-9.783.393v27.767h-15zm65 .83c0-17.407-.318-22.792-1.514-25.653-.832-1.992-1.266-3.868-.966-4.169.301-.3 3.029-1.315 6.062-2.253 5.406-1.673 5.552-1.665 7.453.376 1.067 1.145 2.22 3.572 2.56 5.393l.622 3.311 2.143-3.236c2.98-4.502 10.396-8.06 14.996-7.198 6.264 1.175 6.8 2.11 4.96 8.63l-1.6 5.668-5.805-.168c-5.505-.16-6.014.035-9.858 3.784l-4.053 3.953v33.594h-15zm234 0c0-17.407-.318-22.792-1.514-25.653-.832-1.992-1.266-3.868-.966-4.169.301-.3 3.029-1.315 6.062-2.253 5.355-1.657 5.567-1.65 7.354.27 1.013 1.087 2.124 3.388 2.469 5.114l.628 3.139 2.958-3.59c4.992-6.056 12.89-8.006 19.152-4.73 1.51.79 1.519 1.36.104 6.974l-1.54 6.114-4.191-.63c-5.253-.787-8.436.401-12.397 4.628l-3.11 3.318-.005 16.75-.005 16.75h-15zm46.993-.718c-.005-18.226-.303-23.32-1.5-25.614-.821-1.575-1.493-2.997-1.493-3.158 0-.162 2.812-1.248 6.25-2.414l6.25-2.12 1.718 2.1c.945 1.154 2.006 3.636 2.358 5.514l.641 3.415 2.141-3.162c3.082-4.55 10.21-8.099 14.623-7.28 5.038.936 7.191 2.326 6.626 4.28-.268.93-.966 3.539-1.549 5.8l-1.06 4.11-6.067-.11c-5.894-.108-6.178.009-9.999 4.1l-3.932 4.212v33.077h-15l-.006-22.75zM2.136 16.335V-.162l3.75-.62c5.655-.935 26.554-.735 28.14.269 1.185.75 1.185 1.726 0 6.656l-1.39 5.776-7.75-.237-7.75-.236v17.232L13.733 30.1c-1.87.782-5.246 1.716-7.5 2.077l-4.097.655z" fill="red"/><path d="M6.709 58.728v-22.66l6.584-1.476c3.622-.812 6.825-1.327 7.119-1.146.294.182.534 2.084.534 4.226 0 2.818.298 4.01 1.075 4.308.591.227 3.967.07 7.5-.347 10.964-1.296 14.917-4.718 14.917-12.91 0-3.253-.417-5.19-1.555-7.213-.855-1.522-1.736-2.778-1.957-2.792-.222-.014-1.303-.762-2.402-1.662l-2-1.636.832-4.772c1.052-6.045 1.91-6.987 5.475-6.007 6.603 1.816 10.66 5.294 14.197 12.17 2.724 5.298 3.165 14.747.96 20.598-2.003 5.316-6.584 10.001-12.473 12.757-3.898 1.824-5.887 2.239-13.33 2.78-4.81.35-9.308.645-9.993.657-1.143.02-1.246 1.166-1.246 13.904v13.881H6.71zm64.616.058c-.249-18.785-.498-23.12-1.475-25.67l-1.176-3.07 2.356-.983c1.296-.542 3.904-1.375 5.796-1.85 3.34-.842 3.487-.812 5.102 1.066.914 1.063 2.027 3.38 2.473 5.15l.81 3.218 3.083-3.524c3.634-4.155 8.276-6.55 12.697-6.55 6.803 0 7.938 1.933 5.685 9.68l-1.118 3.846H94.256l-4.202 3.738-4.201 3.737-.063 16.907-.063 16.907H71.624zm60.674 23.007c-7.754-2.157-14.045-7.27-17.39-14.132-4.706-9.652-3.814-19.808 2.583-29.4 5.308-7.96 12.273-11.226 24.076-11.29 7.069-.039 7.756.09 12.242 2.299 10.481 5.16 16.924 17.878 14.895 29.402-.949 5.385-4.072 12.26-7.176 15.794-5.743 6.542-19.584 10.011-29.23 7.327zm13.16-10.455c12.13-3.367 12.148-26.145.028-32.47-2.863-1.495-8.715-1.466-11.6.055-5.5 2.9-8.838 11.323-7.31 18.443.436 2.036 1.553 4.99 2.482 6.565 4.16 7.054 9.304 9.377 16.4 7.407zm46.281 9.749c-2.74-.913-6.184-2.184-7.653-2.825l-2.67-1.164V-1.19h13.35l.3 14.925c.166 8.208.537 15.16.824 15.446.287.288 2.033.073 3.88-.475 1.848-.549 5.828-1.117 8.846-1.263 4.747-.23 6.055-.01 9.69 1.62 5.305 2.382 10.159 7.283 12.69 12.815 3.68 8.04 3.007 20.309-1.5 27.314-2.328 3.62-8.037 8.959-11.418 10.679-6.351 3.231-18.594 3.797-26.339 1.215zm20.961-11.335c5.083-3.363 7.78-12.736 5.75-19.986-2.5-8.929-12.159-13.463-20.559-9.651l-3.102 1.407.255 13.452c.322 17.027.539 17.364 10.802 16.801 2.963-.162 4.912-.737 6.854-2.023zm50.074 12.076c-11.231-3.693-17.715-12.449-18.51-25-.8-12.631 4.708-22.489 15.459-27.661 4.182-2.012 5.278-2.227 11.39-2.23 11.055-.004 16.278 3.254 20.837 12.995 2.586 5.527 2.39 8.549-.863 13.277l-2.246 3.264h-14.937c-16.161 0-16.287.031-15.327 3.858.592 2.36 7.05 9.286 9.67 10.371 3.555 1.473 10.386.627 15.938-1.974 2.686-1.26 4.975-2.29 5.086-2.29.111 0 1.233 1.606 2.492 3.569 2.624 4.09 2.454 4.602-2.497 7.504-7.51 4.4-20.03 6.441-26.492 4.317zm16.296-35.322c2.887 0 3.226-1.695.938-4.695-5.59-7.327-15.02-7.155-20.09.368-2.57 3.814-2.246 4.23 3.542 4.551 2.839.157 7.05.171 9.36.031 2.308-.14 5.12-.255 6.25-.255zM305.5 59.498c-.31-16.877-.655-22.702-1.507-25.435-.607-1.949-.864-3.784-.57-4.077.776-.776 8.675-3.412 10.225-3.412 1.553 0 3.96 3.645 4.583 6.94.24 1.273.695 2.314 1.01 2.314.315 0 1.567-1.256 2.784-2.791 4.147-5.237 11.893-7.718 17.734-5.682 2.626.916 2.72 1.648 1.067 8.234l-1.176 4.681-3.646-.428c-5.152-.606-8.592.576-12.605 4.33l-3.466 3.241v33.975h-14.029zm47.017-.712c-.306-18.82-.564-23.07-1.542-25.397-.647-1.538-.928-3.026-.626-3.307.303-.28 2.94-1.362 5.858-2.403l5.308-1.892 1.275 1.64c.701.9 1.633 2.92 2.07 4.486.438 1.566.92 3.274 1.07 3.795.167.576 1.68-.59 3.861-2.977 4.34-4.748 8.278-6.498 13.493-5.997 3.865.372 6.64 2.212 6.107 4.053-.179.619-.847 2.968-1.484 5.22l-1.159 4.092H375.06l-4.071 4.114-4.071 4.114v33.061h-14.032zm40.989 46.745c.25-2.382.634-4.625.855-4.983.222-.358 2.002-.651 3.956-.651 6.47 0 9.458-2.899 14.88-14.434 2.644-5.625 2.697-5.885 1.671-8.322-5.665-13.467-18.764-46.481-18.764-47.292 0-1.026 3.332-1.693 10.277-2.06l2.803-.147 4.795 12.102c6.85 17.282 8.554 21.088 9.331 20.83.378-.127 1.792-3.103 3.142-6.615 1.35-3.512 4.248-10.986 6.44-16.61l3.985-10.225 4.166.471c2.291.26 5.155.816 6.363 1.238 1.83.638 2.128 1.046 1.778 2.438-.547 2.18-16.31 38.802-24.224 56.279-8.897 19.649-11.988 22.313-25.883 22.313h-6.024z" fill="#fff"/></svg>